<?xml version="1.0" encoding="utf-8"?>
<!-- Generator: Adobe Illustrator 30.2.1, SVG Export Plug-In . SVG Version: 9.03 Build 0)  -->
<svg version="1.1" id="Layer_1" xmlns="http://www.w3.org/2000/svg" xmlns:xlink="http://www.w3.org/1999/xlink"
	 viewBox="482 242 230 21" preserveAspectRatio="xMidYMid meet" xml:space="preserve">
<g enable-background="new    ">
	<path fill="#FFFFFF" d="M486.35,243.21v2.82h2.71v0.72h-2.71v2.84h-0.77v-2.84h-2.71v-0.72h2.71v-2.82H486.35z"/>
	<path fill="#FFFFFF" d="M493.5,243.21v2.82h2.71v0.72h-2.71v2.84h-0.77v-2.84h-2.71v-0.72h2.71v-2.82H493.5z"/>
	<path fill="#FFFFFF" d="M500.66,243.21v2.82h2.71v0.72h-2.71v2.84h-0.77v-2.84h-2.71v-0.72h2.71v-2.82H500.66z"/>
	<path fill="#FFFFFF" d="M507.81,243.21v2.82h2.71v0.72h-2.71v2.84h-0.77v-2.84h-2.71v-0.72h2.71v-2.82H507.81z"/>
	<path fill="#FFFFFF" d="M514.96,243.21v2.82h2.71v0.72h-2.71v2.84h-0.77v-2.84h-2.71v-0.72h2.71v-2.82H514.96z"/>
	<path fill="#FFFFFF" d="M522.11,243.21v2.82h2.71v0.72h-2.71v2.84h-0.77v-2.84h-2.71v-0.72h2.71v-2.82H522.11z"/>
	<path fill="#FFFFFF" d="M529.26,243.21v2.82h2.71v0.72h-2.71v2.84h-0.77v-2.84h-2.71v-0.72h2.71v-2.82H529.26z"/>
	<path fill="#FFFFFF" d="M536.42,243.21v2.82h2.71v0.72h-2.71v2.84h-0.77v-2.84h-2.71v-0.72h2.71v-2.82H536.42z"/>
	<path fill="#FFFFFF" d="M543.57,243.21v2.82h2.71v0.72h-2.71v2.84h-0.77v-2.84h-2.71v-0.72h2.71v-2.82H543.57z"/>
	<path fill="#FFFFFF" d="M550.72,243.21v2.82h2.71v0.72h-2.71v2.84h-0.77v-2.84h-2.71v-0.72h2.71v-2.82H550.72z"/>
	<path fill="#FFFFFF" d="M557.87,243.21v2.82h2.71v0.72h-2.71v2.84h-0.77v-2.84h-2.71v-0.72h2.71v-2.82H557.87z"/>
	<path fill="#FFFFFF" d="M565.02,243.21v2.82h2.71v0.72h-2.71v2.84h-0.77v-2.84h-2.71v-0.72h2.71v-2.82H565.02z"/>
	<path fill="#FFFFFF" d="M572.17,243.21v2.82h2.71v0.72h-2.71v2.84h-0.77v-2.84h-2.71v-0.72h2.71v-2.82H572.17z"/>
	<path fill="#FFFFFF" d="M579.33,243.21v2.82h2.71v0.72h-2.71v2.84h-0.77v-2.84h-2.71v-0.72h2.71v-2.82H579.33z"/>
	<path fill="#FFFFFF" d="M586.48,243.21v2.82h2.71v0.72h-2.71v2.84h-0.77v-2.84H583v-0.72h2.71v-2.82H586.48z"/>
	<path fill="#FFFFFF" d="M593.63,243.21v2.82h2.71v0.72h-2.71v2.84h-0.77v-2.84h-2.71v-0.72h2.71v-2.82H593.63z"/>
	<path fill="#FFFFFF" d="M600.78,243.21v2.82h2.71v0.72h-2.71v2.84h-0.77v-2.84h-2.71v-0.72h2.71v-2.82H600.78z"/>
	<path fill="#FFFFFF" d="M607.93,243.21v2.82h2.71v0.72h-2.71v2.84h-0.77v-2.84h-2.71v-0.72h2.71v-2.82H607.93z"/>
	<path fill="#FFFFFF" d="M615.09,243.21v2.82h2.71v0.72h-2.71v2.84h-0.77v-2.84h-2.71v-0.72h2.71v-2.82H615.09z"/>
	<path fill="#FFFFFF" d="M622.24,243.21v2.82h2.71v0.72h-2.71v2.84h-0.77v-2.84h-2.71v-0.72h2.71v-2.82H622.24z"/>
	<path fill="#FFFFFF" d="M629.39,243.21v2.82h2.71v0.72h-2.71v2.84h-0.77v-2.84h-2.71v-0.72h2.71v-2.82H629.39z"/>
	<path fill="#FFFFFF" d="M636.54,243.21v2.82h2.71v0.72h-2.71v2.84h-0.77v-2.84h-2.71v-0.72h2.71v-2.82H636.54z"/>
	<path fill="#FFFFFF" d="M643.69,243.21v2.82h2.71v0.72h-2.71v2.84h-0.77v-2.84h-2.71v-0.72h2.71v-2.82H643.69z"/>
	<path fill="#FFFFFF" d="M650.85,243.21v2.82h2.71v0.72h-2.71v2.84h-0.77v-2.84h-2.71v-0.72h2.71v-2.82H650.85z"/>
	<path fill="#FFFFFF" d="M658,243.21v2.82h2.71v0.72H658v2.84h-0.77v-2.84h-2.71v-0.72h2.71v-2.82H658z"/>
	<path fill="#FFFFFF" d="M665.15,243.21v2.82h2.71v0.72h-2.71v2.84h-0.77v-2.84h-2.71v-0.72h2.71v-2.82H665.15z"/>
	<path fill="#FFFFFF" d="M672.3,243.21v2.82h2.71v0.72h-2.71v2.84h-0.77v-2.84h-2.71v-0.72h2.71v-2.82H672.3z"/>
	<path fill="#FFFFFF" d="M679.45,243.21v2.82h2.71v0.72h-2.71v2.84h-0.77v-2.84h-2.71v-0.72h2.71v-2.82H679.45z"/>
	<path fill="#FFFFFF" d="M686.61,243.21v2.82h2.71v0.72h-2.71v2.84h-0.77v-2.84h-2.71v-0.72h2.71v-2.82H686.61z"/>
	<path fill="#FFFFFF" d="M693.76,243.21v2.82h2.71v0.72h-2.71v2.84h-0.77v-2.84h-2.71v-0.72h2.71v-2.82H693.76z"/>
	<path fill="#FFFFFF" d="M700.91,243.21v2.82h2.71v0.72h-2.71v2.84h-0.77v-2.84h-2.71v-0.72h2.71v-2.82H700.91z"/>
	<path fill="#FFFFFF" d="M708.06,243.21v2.82h2.71v0.72h-2.71v2.84h-0.77v-2.84h-2.71v-0.72h2.71v-2.82H708.06z"/>
</g>
<g enable-background="new    ">
	<path fill="#FFFFFF" d="M486.35,247.15v2.82h2.71v0.72h-2.71v2.84h-0.77v-2.84h-2.71v-0.72h2.71v-2.82H486.35z"/>
	<path fill="#FFFFFF" d="M493.5,247.15v2.82h2.71v0.72h-2.71v2.84h-0.77v-2.84h-2.71v-0.72h2.71v-2.82H493.5z"/>
	<path fill="#FFFFFF" d="M500.66,247.15v2.82h2.71v0.72h-2.71v2.84h-0.77v-2.84h-2.71v-0.72h2.71v-2.82H500.66z"/>
	<path fill="#FFFFFF" d="M507.81,247.15v2.82h2.71v0.72h-2.71v2.84h-0.77v-2.84h-2.71v-0.72h2.71v-2.82H507.81z"/>
	<path fill="#FFFFFF" d="M514.96,247.15v2.82h2.71v0.72h-2.71v2.84h-0.77v-2.84h-2.71v-0.72h2.71v-2.82H514.96z"/>
	<path fill="#FFFFFF" d="M522.11,247.15v2.82h2.71v0.72h-2.71v2.84h-0.77v-2.84h-2.71v-0.72h2.71v-2.82H522.11z"/>
	<path fill="#FFFFFF" d="M529.26,247.15v2.82h2.71v0.72h-2.71v2.84h-0.77v-2.84h-2.71v-0.72h2.71v-2.82H529.26z"/>
	<path fill="#FFFFFF" d="M536.42,247.15v2.82h2.71v0.72h-2.71v2.84h-0.77v-2.84h-2.71v-0.72h2.71v-2.82H536.42z"/>
	<path fill="#FFFFFF" d="M543.57,247.15v2.82h2.71v0.72h-2.71v2.84h-0.77v-2.84h-2.71v-0.72h2.71v-2.82H543.57z"/>
	<path fill="#FFFFFF" d="M550.72,247.15v2.82h2.71v0.72h-2.71v2.84h-0.77v-2.84h-2.71v-0.72h2.71v-2.82H550.72z"/>
	<path fill="#FFFFFF" d="M557.87,247.15v2.82h2.71v0.72h-2.71v2.84h-0.77v-2.84h-2.71v-0.72h2.71v-2.82H557.87z"/>
	<path fill="#FFFFFF" d="M565.02,247.15v2.82h2.71v0.72h-2.71v2.84h-0.77v-2.84h-2.71v-0.72h2.71v-2.82H565.02z"/>
	<path fill="#FFFFFF" d="M572.17,247.15v2.82h2.71v0.72h-2.71v2.84h-0.77v-2.84h-2.71v-0.72h2.71v-2.82H572.17z"/>
	<path fill="#FFFFFF" d="M579.33,247.15v2.82h2.71v0.72h-2.71v2.84h-0.77v-2.84h-2.71v-0.72h2.71v-2.82H579.33z"/>
	<path fill="#FFFFFF" d="M586.48,247.15v2.82h2.71v0.72h-2.71v2.84h-0.77v-2.84H583v-0.72h2.71v-2.82H586.48z"/>
	<path fill="#FFFFFF" d="M593.63,247.15v2.82h2.71v0.72h-2.71v2.84h-0.77v-2.84h-2.71v-0.72h2.71v-2.82H593.63z"/>
	<path fill="#FFFFFF" d="M600.78,247.15v2.82h2.71v0.72h-2.71v2.84h-0.77v-2.84h-2.71v-0.72h2.71v-2.82H600.78z"/>
	<path fill="#FFFFFF" d="M607.93,247.15v2.82h2.71v0.72h-2.71v2.84h-0.77v-2.84h-2.71v-0.72h2.71v-2.82H607.93z"/>
	<path fill="#FFFFFF" d="M615.09,247.15v2.82h2.71v0.72h-2.71v2.84h-0.77v-2.84h-2.71v-0.72h2.71v-2.82H615.09z"/>
	<path fill="#FFFFFF" d="M622.24,247.15v2.82h2.71v0.72h-2.71v2.84h-0.77v-2.84h-2.71v-0.72h2.71v-2.82H622.24z"/>
	<path fill="#FFFFFF" d="M629.39,247.15v2.82h2.71v0.72h-2.71v2.84h-0.77v-2.84h-2.71v-0.72h2.71v-2.82H629.39z"/>
	<path fill="#FFFFFF" d="M636.54,247.15v2.82h2.71v0.72h-2.71v2.84h-0.77v-2.84h-2.71v-0.72h2.71v-2.82H636.54z"/>
	<path fill="#FFFFFF" d="M643.69,247.15v2.82h2.71v0.72h-2.71v2.84h-0.77v-2.84h-2.71v-0.72h2.71v-2.82H643.69z"/>
	<path fill="#FFFFFF" d="M650.85,247.15v2.82h2.71v0.72h-2.71v2.84h-0.77v-2.84h-2.71v-0.72h2.71v-2.82H650.85z"/>
	<path fill="#FFFFFF" d="M658,247.15v2.82h2.71v0.72H658v2.84h-0.77v-2.84h-2.71v-0.72h2.71v-2.82H658z"/>
	<path fill="#FFFFFF" d="M665.15,247.15v2.82h2.71v0.72h-2.71v2.84h-0.77v-2.84h-2.71v-0.72h2.71v-2.82H665.15z"/>
	<path fill="#FFFFFF" d="M672.3,247.15v2.82h2.71v0.72h-2.71v2.84h-0.77v-2.84h-2.71v-0.72h2.71v-2.82H672.3z"/>
	<path fill="#FFFFFF" d="M679.45,247.15v2.82h2.71v0.72h-2.71v2.84h-0.77v-2.84h-2.71v-0.72h2.71v-2.82H679.45z"/>
	<path fill="#FFFFFF" d="M686.61,247.15v2.82h2.71v0.72h-2.71v2.84h-0.77v-2.84h-2.71v-0.72h2.71v-2.82H686.61z"/>
	<path fill="#FFFFFF" d="M693.76,247.15v2.82h2.71v0.72h-2.71v2.84h-0.77v-2.84h-2.71v-0.72h2.71v-2.82H693.76z"/>
	<path fill="#FFFFFF" d="M700.91,247.15v2.82h2.71v0.72h-2.71v2.84h-0.77v-2.84h-2.71v-0.72h2.71v-2.82H700.91z"/>
	<path fill="#FFFFFF" d="M708.06,247.15v2.82h2.71v0.72h-2.71v2.84h-0.77v-2.84h-2.71v-0.72h2.71v-2.82H708.06z"/>
</g>
<line fill="none" stroke="#FFFFFF" stroke-width="0.5" stroke-miterlimit="10" x1="482.32" y1="256.92" x2="711.19" y2="256.92"/>
<line fill="none" stroke="#FFFFFF" stroke-width="0.5" stroke-miterlimit="10" x1="482.32" y1="260.94" x2="711.19" y2="260.94"/>
</svg>
